<svg width="42" height="47" viewBox="0 0 42 47" fill="none" xmlns="http://www.w3.org/2000/svg">
<g opacity="0.95">
<path d="M20.7972 31.4152C19.5321 31.4208 18.2838 31.1144 17.1546 30.521C16.0254 29.9276 15.0474 29.0642 14.3011 28.0015L9.09882 31.1099C9.29678 31.3473 9.53113 31.5489 9.79246 31.7066L19.0498 37.2573C19.5908 37.5448 20.1896 37.6947 20.7972 37.6947C21.4047 37.6947 22.0035 37.5448 22.5446 37.2573L31.8019 31.7066C32.0632 31.5489 32.2976 31.3473 32.4955 31.1099L27.3067 27.946C26.5647 29.0208 25.5872 29.8961 24.4551 30.4994C23.3231 31.1027 22.0691 31.4167 20.7972 31.4152Z" fill="url(#paint0_linear_1_59)"/>
<path d="M12.6529 23.0387C12.6577 21.0653 13.4247 19.1627 14.8074 17.6946C16.1901 16.2265 18.0915 15.2959 20.1481 15.0806V9.09882C19.8361 9.16069 19.5359 9.26805 19.2582 9.41714L9.60759 14.7225C9.08305 15.0572 8.64689 15.5032 8.33331 16.0256C8.01967 16.5479 7.83711 17.1324 7.79987 17.7333V28.3441C7.80416 28.6502 7.85563 28.9542 7.95279 29.246L13.3761 26.2618C12.9018 25.2473 12.6555 24.1494 12.6529 23.0387Z" fill="url(#paint1_linear_1_59)"/>
<path d="M32.082 14.7188L22.9394 9.41695C22.6763 9.26792 22.3919 9.16062 22.0963 9.09882V15.0634C23.3383 15.205 24.53 15.638 25.5753 16.3277C26.6206 17.0173 27.4904 17.9443 28.1145 19.0339C28.7387 20.1236 29.0998 21.3454 29.1688 22.6012C29.2378 23.857 29.0128 25.1114 28.5119 26.2637L33.6498 29.246C33.7418 28.9543 33.7906 28.6506 33.7946 28.3447V17.7409C33.7613 17.1381 33.5893 16.5514 33.2921 16.0269C32.9948 15.5024 32.5807 15.0546 32.082 14.7188Z" fill="url(#paint2_linear_1_59)"/>
<path d="M38.7421 9.4049L23.6492 0.6761C22.7641 0.231497 21.7874 0 20.7971 0C19.8068 0 18.8302 0.231497 17.945 0.6761L2.85206 9.4049C2.02362 9.94537 1.33387 10.6733 0.838384 11.53C0.342958 12.3866 0.0557622 13.3479 0 14.3362V31.7937C0.0547224 32.7841 0.341398 33.7477 0.836824 34.6067C1.33225 35.4657 2.02258 36.196 2.85206 36.7387L17.945 45.4676C18.8302 45.9122 19.8068 46.1436 20.7971 46.1436C21.7874 46.1436 22.7641 45.9122 23.6492 45.4676L38.7421 36.7387C39.5716 36.196 40.2619 35.4657 40.7574 34.6067C41.2528 33.7477 41.5395 32.7841 41.5942 31.7937V14.3362C41.5384 13.3479 41.2512 12.3866 40.7558 11.53C40.2603 10.6733 39.5706 9.94537 38.7421 9.4049ZM36.8043 29.7857C36.76 30.5465 36.5382 31.2863 36.1566 31.9458C35.7751 32.6053 35.2444 33.166 34.6072 33.5832L22.9805 40.3039C22.3013 40.6473 21.5511 40.8262 20.7903 40.8262C20.0294 40.8262 19.2792 40.6473 18.6001 40.3039L6.98698 33.5832C6.34974 33.166 5.81909 32.6053 5.4376 31.9458C5.05603 31.2863 4.83422 30.5465 4.78989 29.7857V16.3579C4.83422 15.597 5.05603 14.8572 5.4376 14.1978C5.81909 13.5383 6.34974 12.9775 6.98698 12.5603L18.5864 5.83963C19.2655 5.49628 20.0157 5.31736 20.7766 5.31736C21.5375 5.31736 22.2877 5.49628 22.9669 5.83963L34.5936 12.5603C35.2333 12.976 35.7667 13.5361 36.1506 14.1957C36.5346 14.8552 36.7585 15.5959 36.8043 16.3579V29.7857Z" fill="url(#paint3_linear_1_59)"/>
<path d="M14.9467 23.0717C14.9467 24.1643 15.2898 25.2324 15.9325 26.1408C16.5752 27.0493 17.4887 27.7573 18.5576 28.1755C19.6264 28.5936 20.8024 28.7029 21.9371 28.4898C23.0717 28.2767 24.1139 27.7506 24.9319 26.9779C25.7499 26.2054 26.307 25.221 26.5327 24.1495C26.7584 23.0778 26.6426 21.9671 26.1999 20.9577C25.7571 19.9483 25.0075 19.0855 24.0456 18.4785C23.0837 17.8715 21.9528 17.5475 20.7959 17.5475C19.2447 17.5475 17.7569 18.1295 16.66 19.1655C15.563 20.2015 14.9467 21.6066 14.9467 23.0717Z" fill="url(#paint4_linear_1_59)"/>
</g>
<defs>
<linearGradient id="paint0_linear_1_59" x1="23.3444" y1="39.3819" x2="23.6238" y2="25.6025" gradientUnits="userSpaceOnUse">
<stop stop-color="#F35F2F"/>
<stop offset="1" stop-color="#F35F2F" stop-opacity="0.75"/>
</linearGradient>
<linearGradient id="paint1_linear_1_59" x1="15.3184" y1="32.733" x2="17.5663" y2="4.42237" gradientUnits="userSpaceOnUse">
<stop stop-color="#F35F2F"/>
<stop offset="1" stop-color="#F35F2F" stop-opacity="0.75"/>
</linearGradient>
<linearGradient id="paint2_linear_1_59" x1="29.219" y1="32.733" x2="31.5901" y2="4.44261" gradientUnits="userSpaceOnUse">
<stop stop-color="#F35F2F"/>
<stop offset="1" stop-color="#F35F2F" stop-opacity="0.75"/>
</linearGradient>
<linearGradient id="paint3_linear_1_59" x1="25.3255" y1="54.1299" x2="28.838" y2="-10.9297" gradientUnits="userSpaceOnUse">
<stop stop-color="#F35F2F"/>
<stop offset="1" stop-color="#F35F2F" stop-opacity="0.75"/>
</linearGradient>
<linearGradient id="paint4_linear_1_59" x1="22.0695" y1="30.5082" x2="22.7861" y2="14.9181" gradientUnits="userSpaceOnUse">
<stop stop-color="#F35F2F"/>
<stop offset="1" stop-color="#F35F2F" stop-opacity="0.75"/>
</linearGradient>
</defs>
</svg>
