<svg width="132" height="38" viewBox="0 0 132 38" fill="none" xmlns="http://www.w3.org/2000/svg">
<circle cx="23.4667" cy="15.4667" r="15.4667" fill="#4D77CF"/>
<path fill-rule="evenodd" clip-rule="evenodd" d="M26.7026 11.284C26.3323 11.21 25.8323 11.1547 25.5179 11.1547C24.6664 11.1547 24.611 11.5249 24.611 12.1172V13.1717H26.7396L26.554 15.356H24.611V22H21.9459V15.356H20.5761V13.1717H21.9459V11.8206C21.9459 9.96997 22.8157 8.93335 24.9996 8.93335C25.7583 8.93335 26.3136 9.04442 27.0353 9.1925L26.7026 11.284Z" fill="white"/>
<circle cx="108.533" cy="15.4667" r="15.4667" fill="#0077B5"/>
<path fill-rule="evenodd" clip-rule="evenodd" d="M104.952 8.55367C104.952 9.4245 104.289 10.1292 103.253 10.1292C102.256 10.1292 101.593 9.4245 101.613 8.55367C101.593 7.64052 102.256 6.9563 103.272 6.9563C104.289 6.9563 104.933 7.64052 104.952 8.55367ZM101.697 21.5173V11.3739H104.849V21.5167H101.697V21.5173Z" fill="white"/>
<path fill-rule="evenodd" clip-rule="evenodd" d="M107.376 14.6111C107.376 13.3459 107.334 12.2673 107.293 11.3753H110.031L110.176 12.765H110.239C110.653 12.1218 111.69 11.1477 113.37 11.1477C115.444 11.1477 117 12.5168 117 15.5025V21.5188H113.848V15.8975C113.848 14.59 113.392 13.6986 112.251 13.6986C111.379 13.6986 110.861 14.3001 110.654 14.8805C110.571 15.0882 110.53 15.3781 110.53 15.6692V21.5188H107.377V14.6111H107.376Z" fill="white"/>
<circle cx="66.0009" cy="15.4667" r="15.4667" fill="#1DA1F2"/>
<path fill-rule="evenodd" clip-rule="evenodd" d="M74.2748 10.1421C73.6664 10.4124 73.0116 10.5944 72.3248 10.6766C73.0259 10.2563 73.5643 9.59098 73.8175 8.79828C73.1622 9.18774 72.4346 9.46963 71.6617 9.62243C71.0422 8.96267 70.1591 8.55005 69.1832 8.55005C67.3082 8.55005 65.7879 10.0704 65.7879 11.9454C65.7879 12.2113 65.8183 12.4705 65.8762 12.7193C63.054 12.5781 60.5523 11.226 58.8776 9.17174C58.5852 9.67318 58.4181 10.2563 58.4181 10.8785C58.4181 12.0562 59.0166 13.0955 59.9284 13.7045C59.3713 13.6869 58.8483 13.5341 58.3899 13.2798V13.3222C58.3899 14.9678 59.561 16.3397 61.1133 16.6525C60.8287 16.7297 60.5286 16.7716 60.2191 16.7716C60.0001 16.7716 59.7872 16.7501 59.5798 16.7104C60.0117 18.0591 61.2662 19.0411 62.7517 19.0686C61.59 19.9788 60.1259 20.5222 58.535 20.5222C58.2603 20.5222 57.99 20.5062 57.7247 20.4742C59.2273 21.4374 61.0118 22 62.9293 22C69.1744 22 72.5896 16.8262 72.5896 12.3398C72.5896 12.1925 72.5868 12.0458 72.5796 11.9007C73.2438 11.4208 73.8197 10.8228 74.2748 10.1421Z" fill="white"/>
</svg>
