<svg width="147" height="150" viewBox="0 0 147 150" fill="none" xmlns="http://www.w3.org/2000/svg">
<g filter="url(#filter0_d_119_4)">
<rect x="146" y="72.1249" width="102" height="102" rx="51" transform="rotate(135 146 72.1249)" fill="white"/>
</g>
<g clip-path="url(#clip0_119_4)">
<path d="M69.0655 52.7049H58.2764C56.2377 52.7049 54.58 54.3626 54.58 56.4013V67.1904C54.58 69.2291 56.2376 70.8868 58.2764 70.8868H69.0655C71.1041 70.8868 72.7619 69.2292 72.7619 67.1904V56.4013C72.7618 54.3626 71.1041 52.7049 69.0655 52.7049ZM70.7636 67.1904C70.7636 68.1264 70.0015 68.8886 69.0655 68.8886H58.2764C57.3404 68.8886 56.5782 68.1264 56.5782 67.1904V56.4013C56.5782 55.4653 57.3404 54.7032 58.2764 54.7032H69.0655C70.0015 54.7032 70.7636 55.4653 70.7636 56.4013V67.1904Z" fill="#3D3D3F" stroke="#3D3D3F" stroke-width="0.2"/>
<path d="M90.2255 52.7049H79.4364C77.3977 52.7049 75.74 54.3626 75.74 56.4013V67.1904C75.74 69.2291 77.3977 70.8868 79.4364 70.8868H90.2255C92.2642 70.8868 93.9219 69.2292 93.9219 67.1904V56.4013C93.9218 54.3626 92.2642 52.7049 90.2255 52.7049ZM91.9237 67.1904C91.9237 68.1264 91.1615 68.8886 90.2255 68.8886H79.4364C78.5004 68.8886 77.7383 68.1264 77.7383 67.1904V56.4013C77.7383 55.4653 78.5004 54.7032 79.4364 54.7032H90.2255C91.1615 54.7032 91.9237 55.4653 91.9237 56.4013V67.1904Z" fill="#3D3D3F" stroke="#3D3D3F" stroke-width="0.2"/>
<path d="M69.0655 74.2832H58.2764C56.2377 74.2832 54.58 75.9408 54.58 77.9796V88.7687C54.58 90.8073 56.2376 92.4651 58.2764 92.4651H69.0655C71.1041 92.4651 72.7619 90.8074 72.7619 88.7687V77.9796C72.7618 75.9408 71.1041 74.2832 69.0655 74.2832ZM70.7636 88.7687C70.7636 89.7047 70.0015 90.4668 69.0655 90.4668H58.2764C57.3404 90.4668 56.5782 89.7047 56.5782 88.7687V77.9796C56.5782 77.0436 57.3404 76.2814 58.2764 76.2814H69.0655C70.0015 76.2814 70.7636 77.0436 70.7636 77.9796V88.7687Z" fill="#3D3D3F" stroke="#3D3D3F" stroke-width="0.2"/>
<path d="M90.2255 74.2832H79.4364C77.3977 74.2832 75.74 75.9408 75.74 77.9796V88.7687C75.74 90.8073 77.3977 92.4651 79.4364 92.4651H90.2255C92.2642 92.4651 93.9219 90.8074 93.9219 88.7687V77.9796C93.9218 75.9408 92.2642 74.2832 90.2255 74.2832ZM91.9237 88.7687C91.9237 89.7047 91.1615 90.4668 90.2255 90.4668H79.4364C78.5004 90.4668 77.7383 89.7047 77.7383 88.7687V77.9796C77.7383 77.0436 78.5004 76.2814 79.4364 76.2814H90.2255C91.1615 76.2814 91.9237 77.0436 91.9237 77.9796V88.7687Z" fill="#3D3D3F" stroke="#3D3D3F" stroke-width="0.2"/>
</g>
<defs>
<filter id="filter0_d_119_4" x="0.875122" y="3.12488" width="146" height="146" filterUnits="userSpaceOnUse" color-interpolation-filters="sRGB">
<feFlood flood-opacity="0" result="BackgroundImageFix"/>
<feColorMatrix in="SourceAlpha" type="matrix" values="0 0 0 0 0 0 0 0 0 0 0 0 0 0 0 0 0 0 127 0" result="hardAlpha"/>
<feOffset dy="4"/>
<feGaussianBlur stdDeviation="11"/>
<feComposite in2="hardAlpha" operator="out"/>
<feColorMatrix type="matrix" values="0 0 0 0 0.370833 0 0 0 0 0.370833 0 0 0 0 0.370833 0 0 0 0.05 0"/>
<feBlend mode="normal" in2="BackgroundImageFix" result="effect1_dropShadow_119_4"/>
<feBlend mode="normal" in="SourceGraphic" in2="effect1_dropShadow_119_4" result="shape"/>
</filter>
<clipPath id="clip0_119_4">
<rect x="54.68" y="52.8049" width="39.56" height="39.56" rx="3" fill="white"/>
</clipPath>
</defs>
</svg>
