<svg width="147" height="150" viewBox="0 0 147 150" fill="none" xmlns="http://www.w3.org/2000/svg">
<g filter="url(#filter0_d_119_3)">
<rect x="146" y="72.1249" width="102" height="102" rx="51" transform="rotate(135 146 72.1249)" fill="#FF7A50" fill-opacity="0.83" shape-rendering="crispEdges"/>
</g>
<g clip-path="url(#clip0_119_3)">
<path d="M94.6055 47.2225H53.3945C50.9714 47.2225 49 49.1939 49 51.6171V92.6327C49 95.0558 50.9714 97.0272 53.3945 97.0272H94.6055C97.0286 97.0272 99 95.0558 99 92.6327V51.6171C99 49.1939 97.0286 47.2225 94.6055 47.2225ZM53.3945 50.1522H94.6055C95.4132 50.1522 96.0703 50.8094 96.0703 51.6171V58.9413H51.9297V51.6171C51.9297 50.8094 52.5868 50.1522 53.3945 50.1522ZM94.6055 94.0975H53.3945C52.5868 94.0975 51.9297 93.4404 51.9297 92.6327V61.871H96.0703V92.6327C96.0703 93.4404 95.4132 94.0975 94.6055 94.0975Z" fill="white"/>
<path d="M78.9716 66.3839C78.2281 66.0653 77.3669 66.4097 77.0482 67.1533L68.2591 87.6611C67.9404 88.4046 68.2849 89.2659 69.0285 89.5845C69.7723 89.9033 70.6334 89.5585 70.9519 88.8152L79.741 68.3074C80.0597 67.5637 79.7152 66.7026 78.9716 66.3839Z" fill="white"/>
<path d="M66.3547 71.2097C65.8492 70.578 64.9272 70.4756 64.2958 70.981L56.9716 76.8403C56.2393 77.426 56.2388 78.5419 56.9716 79.128L64.2958 84.9874C64.9275 85.4929 65.8495 85.3903 66.3547 84.7587C66.8601 84.127 66.7577 83.2051 66.1259 82.6998L60.2315 77.9842L66.1259 73.2687C66.7577 72.7633 66.8601 71.8415 66.3547 71.2097Z" fill="white"/>
<path d="M91.0286 76.8404L83.7043 70.981C83.0726 70.4756 82.1507 70.578 81.6455 71.2097C81.1401 71.8415 81.2424 72.7633 81.8743 73.2686L87.7686 77.9842L81.8743 82.6998C81.2424 83.2051 81.1401 84.1269 81.6455 84.7587C82.1515 85.3911 83.0735 85.4923 83.7043 84.9874L91.0286 79.128C91.7609 78.5423 91.7614 77.4265 91.0286 76.8404Z" fill="white"/>
<path d="M56.4219 56.0116C57.2309 56.0116 57.8867 55.3558 57.8867 54.5468C57.8867 53.7377 57.2309 53.0819 56.4219 53.0819C55.6129 53.0819 54.957 53.7377 54.957 54.5468C54.957 55.3558 55.6129 56.0116 56.4219 56.0116Z" fill="white"/>
<path d="M62.2812 56.0116C63.0903 56.0116 63.7461 55.3558 63.7461 54.5468C63.7461 53.7377 63.0903 53.0819 62.2812 53.0819C61.4722 53.0819 60.8164 53.7377 60.8164 54.5468C60.8164 55.3558 61.4722 56.0116 62.2812 56.0116Z" fill="white"/>
<path d="M68.1406 56.0116C68.9496 56.0116 69.6055 55.3558 69.6055 54.5468C69.6055 53.7377 68.9496 53.0819 68.1406 53.0819C67.3316 53.0819 66.6758 53.7377 66.6758 54.5468C66.6758 55.3558 67.3316 56.0116 68.1406 56.0116Z" fill="white"/>
<path d="M82.7891 56.0116H91.5781C92.3871 56.0116 93.043 55.3557 93.043 54.5468C93.043 53.7378 92.3871 53.0819 91.5781 53.0819H82.7891C81.9801 53.0819 81.3242 53.7378 81.3242 54.5468C81.3242 55.3557 81.9801 56.0116 82.7891 56.0116Z" fill="white"/>
</g>
<defs>
<filter id="filter0_d_119_3" x="0.875122" y="3.12488" width="146" height="146" filterUnits="userSpaceOnUse" color-interpolation-filters="sRGB">
<feFlood flood-opacity="0" result="BackgroundImageFix"/>
<feColorMatrix in="SourceAlpha" type="matrix" values="0 0 0 0 0 0 0 0 0 0 0 0 0 0 0 0 0 0 127 0" result="hardAlpha"/>
<feOffset dy="4"/>
<feGaussianBlur stdDeviation="11"/>
<feComposite in2="hardAlpha" operator="out"/>
<feColorMatrix type="matrix" values="0 0 0 0 0.370833 0 0 0 0 0.370833 0 0 0 0 0.370833 0 0 0 0.05 0"/>
<feBlend mode="normal" in2="BackgroundImageFix" result="effect1_dropShadow_119_3"/>
<feBlend mode="normal" in="SourceGraphic" in2="effect1_dropShadow_119_3" result="shape"/>
</filter>
<clipPath id="clip0_119_3">
<rect width="50" height="50" fill="white" transform="translate(49 47.1249)"/>
</clipPath>
</defs>
</svg>
